<mxfile host="Electron" modified="2024-02-14T01:33:05.278Z" agent="Mozilla/5.0 (Windows NT 10.0; Win64; x64) AppleWebKit/537.36 (KHTML, like Gecko) draw.io/22.1.21 Chrome/120.0.6099.109 Electron/28.1.0 Safari/537.36" etag="9oYc03AV9bFWOO7rUvQk" version="22.1.21" type="device">
  <diagram name="PÃ¡gina-1" id="r4YKMH676i4H6KGSOjWx">
    <mxGraphModel dx="1572" dy="750" grid="1" gridSize="10" guides="1" tooltips="1" connect="1" arrows="1" fold="1" page="1" pageScale="1" pageWidth="827" pageHeight="1169" math="0" shadow="0">
      <root>
        <mxCell id="0" />
        <mxCell id="1" parent="0" />
        <mxCell id="Buj41cZJLZKaGUYNx-eF-6" style="edgeStyle=orthogonalEdgeStyle;rounded=0;orthogonalLoop=1;jettySize=auto;html=1;" edge="1" parent="1" source="Buj41cZJLZKaGUYNx-eF-1" target="Buj41cZJLZKaGUYNx-eF-5">
          <mxGeometry relative="1" as="geometry" />
        </mxCell>
        <mxCell id="Buj41cZJLZKaGUYNx-eF-1" value="" style="rounded=0;whiteSpace=wrap;html=1;" vertex="1" parent="1">
          <mxGeometry x="354" y="120" width="120" height="60" as="geometry" />
        </mxCell>
        <mxCell id="Buj41cZJLZKaGUYNx-eF-2" value="" style="endArrow=classic;html=1;rounded=0;" edge="1" parent="1">
          <mxGeometry width="50" height="50" relative="1" as="geometry">
            <mxPoint x="390" y="90" as="sourcePoint" />
            <mxPoint x="390" y="120" as="targetPoint" />
          </mxGeometry>
        </mxCell>
        <mxCell id="Buj41cZJLZKaGUYNx-eF-3" value="RESET_L*" style="text;html=1;align=center;verticalAlign=middle;resizable=0;points=[];autosize=1;strokeColor=none;fillColor=none;" vertex="1" parent="1">
          <mxGeometry x="350" y="58" width="80" height="30" as="geometry" />
        </mxCell>
        <mxCell id="Buj41cZJLZKaGUYNx-eF-4" value="&lt;font color=&quot;#9933ff&quot;&gt;&lt;b&gt;E_W8_NONO_INI&lt;/b&gt;&lt;/font&gt;" style="text;html=1;align=center;verticalAlign=middle;resizable=0;points=[];autosize=1;strokeColor=none;fillColor=none;" vertex="1" parent="1">
          <mxGeometry x="400" y="88" width="120" height="30" as="geometry" />
        </mxCell>
        <mxCell id="Buj41cZJLZKaGUYNx-eF-7" style="edgeStyle=orthogonalEdgeStyle;rounded=0;orthogonalLoop=1;jettySize=auto;html=1;entryX=1;entryY=0.25;entryDx=0;entryDy=0;" edge="1" parent="1" source="Buj41cZJLZKaGUYNx-eF-5" target="Buj41cZJLZKaGUYNx-eF-1">
          <mxGeometry relative="1" as="geometry">
            <Array as="points">
              <mxPoint x="620" y="90" />
              <mxPoint x="540" y="90" />
              <mxPoint x="540" y="135" />
            </Array>
          </mxGeometry>
        </mxCell>
        <mxCell id="Buj41cZJLZKaGUYNx-eF-10" style="edgeStyle=orthogonalEdgeStyle;rounded=0;orthogonalLoop=1;jettySize=auto;html=1;exitX=0.5;exitY=1;exitDx=0;exitDy=0;" edge="1" parent="1" source="Buj41cZJLZKaGUYNx-eF-5" target="Buj41cZJLZKaGUYNx-eF-8">
          <mxGeometry relative="1" as="geometry">
            <Array as="points">
              <mxPoint x="414" y="210" />
            </Array>
          </mxGeometry>
        </mxCell>
        <mxCell id="Buj41cZJLZKaGUYNx-eF-5" value="&lt;font color=&quot;#0000ff&quot;&gt;INI_NONO&lt;/font&gt;" style="rhombus;whiteSpace=wrap;html=1;" vertex="1" parent="1">
          <mxGeometry x="580" y="110" width="80" height="80" as="geometry" />
        </mxCell>
        <mxCell id="Buj41cZJLZKaGUYNx-eF-17" style="edgeStyle=orthogonalEdgeStyle;rounded=0;orthogonalLoop=1;jettySize=auto;html=1;" edge="1" parent="1" source="Buj41cZJLZKaGUYNx-eF-8" target="Buj41cZJLZKaGUYNx-eF-16">
          <mxGeometry relative="1" as="geometry" />
        </mxCell>
        <mxCell id="Buj41cZJLZKaGUYNx-eF-8" value="&lt;font color=&quot;#0000ff&quot;&gt;GRID_OP&lt;/font&gt;" style="rounded=0;whiteSpace=wrap;html=1;" vertex="1" parent="1">
          <mxGeometry x="354" y="268" width="120" height="60" as="geometry" />
        </mxCell>
        <mxCell id="Buj41cZJLZKaGUYNx-eF-9" value="&lt;font color=&quot;#9933ff&quot;&gt;&lt;b&gt;E_GRID_BUILDING&lt;/b&gt;&lt;/font&gt;" style="text;html=1;align=center;verticalAlign=middle;resizable=0;points=[];autosize=1;strokeColor=none;fillColor=none;" vertex="1" parent="1">
          <mxGeometry x="414" y="230" width="130" height="30" as="geometry" />
        </mxCell>
        <mxCell id="Buj41cZJLZKaGUYNx-eF-14" value="0" style="text;html=1;align=center;verticalAlign=middle;resizable=0;points=[];autosize=1;strokeColor=none;fillColor=none;" vertex="1" parent="1">
          <mxGeometry x="620" y="80" width="30" height="30" as="geometry" />
        </mxCell>
        <mxCell id="Buj41cZJLZKaGUYNx-eF-15" value="1" style="text;html=1;align=center;verticalAlign=middle;resizable=0;points=[];autosize=1;strokeColor=none;fillColor=none;" vertex="1" parent="1">
          <mxGeometry x="620" y="190" width="30" height="30" as="geometry" />
        </mxCell>
        <mxCell id="Buj41cZJLZKaGUYNx-eF-18" style="edgeStyle=orthogonalEdgeStyle;rounded=0;orthogonalLoop=1;jettySize=auto;html=1;entryX=1;entryY=0.25;entryDx=0;entryDy=0;" edge="1" parent="1" source="Buj41cZJLZKaGUYNx-eF-16" target="Buj41cZJLZKaGUYNx-eF-8">
          <mxGeometry relative="1" as="geometry">
            <Array as="points">
              <mxPoint x="610" y="240" />
              <mxPoint x="560" y="240" />
              <mxPoint x="560" y="283" />
            </Array>
          </mxGeometry>
        </mxCell>
        <mxCell id="Buj41cZJLZKaGUYNx-eF-23" style="edgeStyle=orthogonalEdgeStyle;rounded=0;orthogonalLoop=1;jettySize=auto;html=1;entryX=1;entryY=0.5;entryDx=0;entryDy=0;" edge="1" parent="1" source="Buj41cZJLZKaGUYNx-eF-16" target="Buj41cZJLZKaGUYNx-eF-21">
          <mxGeometry relative="1" as="geometry">
            <Array as="points">
              <mxPoint x="610" y="419" />
              <mxPoint x="522" y="419" />
            </Array>
          </mxGeometry>
        </mxCell>
        <mxCell id="Buj41cZJLZKaGUYNx-eF-16" value="&lt;font color=&quot;#0000ff&quot;&gt;DONE_GRID&lt;/font&gt;" style="rhombus;whiteSpace=wrap;html=1;" vertex="1" parent="1">
          <mxGeometry x="560" y="246" width="100" height="104" as="geometry" />
        </mxCell>
        <mxCell id="Buj41cZJLZKaGUYNx-eF-19" value="1" style="text;html=1;align=center;verticalAlign=middle;resizable=0;points=[];autosize=1;strokeColor=none;fillColor=none;" vertex="1" parent="1">
          <mxGeometry x="620" y="350" width="30" height="30" as="geometry" />
        </mxCell>
        <mxCell id="Buj41cZJLZKaGUYNx-eF-20" value="0" style="text;html=1;align=center;verticalAlign=middle;resizable=0;points=[];autosize=1;strokeColor=none;fillColor=none;" vertex="1" parent="1">
          <mxGeometry x="620" y="230" width="30" height="30" as="geometry" />
        </mxCell>
        <mxCell id="Buj41cZJLZKaGUYNx-eF-26" style="edgeStyle=orthogonalEdgeStyle;rounded=0;orthogonalLoop=1;jettySize=auto;html=1;entryX=0.5;entryY=0;entryDx=0;entryDy=0;" edge="1" parent="1" source="Buj41cZJLZKaGUYNx-eF-21" target="Buj41cZJLZKaGUYNx-eF-24">
          <mxGeometry relative="1" as="geometry" />
        </mxCell>
        <mxCell id="Buj41cZJLZKaGUYNx-eF-21" value="&lt;font color=&quot;#ff0000&quot;&gt;PR_MUX&lt;/font&gt;" style="rounded=0;whiteSpace=wrap;html=1;" vertex="1" parent="1">
          <mxGeometry x="354" y="389" width="120" height="60" as="geometry" />
        </mxCell>
        <mxCell id="Buj41cZJLZKaGUYNx-eF-22" value="&lt;font color=&quot;#9933ff&quot;&gt;&lt;b&gt;E_SLAVE_MODE_START&lt;/b&gt;&lt;/font&gt;" style="text;html=1;align=center;verticalAlign=middle;resizable=0;points=[];autosize=1;strokeColor=none;fillColor=none;" vertex="1" parent="1">
          <mxGeometry x="394" y="359" width="170" height="30" as="geometry" />
        </mxCell>
        <mxCell id="Buj41cZJLZKaGUYNx-eF-24" value="" style="whiteSpace=wrap;html=1;" vertex="1" parent="1">
          <mxGeometry x="354" y="510" width="120" height="60" as="geometry" />
        </mxCell>
        <mxCell id="Buj41cZJLZKaGUYNx-eF-25" value="&lt;font color=&quot;#9933ff&quot;&gt;&lt;b&gt;E_SLAVE&lt;/b&gt;&lt;/font&gt;" style="text;html=1;align=center;verticalAlign=middle;resizable=0;points=[];autosize=1;strokeColor=none;fillColor=none;" vertex="1" parent="1">
          <mxGeometry x="430" y="480" width="80" height="30" as="geometry" />
        </mxCell>
        <mxCell id="Buj41cZJLZKaGUYNx-eF-27" style="edgeStyle=orthogonalEdgeStyle;rounded=0;orthogonalLoop=1;jettySize=auto;html=1;entryX=1;entryY=0.5;entryDx=0;entryDy=0;" edge="1" parent="1" source="Buj41cZJLZKaGUYNx-eF-24" target="Buj41cZJLZKaGUYNx-eF-24">
          <mxGeometry relative="1" as="geometry">
            <Array as="points">
              <mxPoint x="414" y="600" />
              <mxPoint x="494" y="600" />
              <mxPoint x="494" y="540" />
            </Array>
          </mxGeometry>
        </mxCell>
      </root>
    </mxGraphModel>
  </diagram>
</mxfile>
